<?xml version="1.0" standalone="no"?>
<!DOCTYPE svg PUBLIC "-//W3C//DTD SVG 20010904//EN"
 "http://www.w3.org/TR/2001/REC-SVG-20010904/DTD/svg10.dtd">
<svg version="1.0" xmlns="http://www.w3.org/2000/svg"
 width="951.000000pt" height="951.000000pt" viewBox="0 0 951.000000 951.000000"
 preserveAspectRatio="xMidYMid meet">
<metadata>
Created by potrace 1.14, written by Peter Selinger 2001-2017
</metadata>
<g transform="translate(0.000000,951.000000) scale(0.100000,-0.100000)"
fill="#000000" stroke="none">
<path d="M4975 8700 c-2 -3 93 -174 212 -380 118 -206 225 -393 238 -415 35
-63 49 -88 273 -478 116 -202 214 -368 218 -369 5 0 12 6 16 13 4 8 25 43 46
79 21 36 52 90 69 120 26 48 418 730 442 770 5 8 56 96 112 195 57 99 139 241
182 315 43 74 79 139 80 145 2 9 -1882 15 -1888 5z"/>
<path d="M7217 8702 c-9 -2 -17 -5 -17 -7 0 -5 7 -17 180 -315 204 -350 200
-343 280 -480 40 -69 80 -138 90 -155 10 -16 34 -59 55 -95 21 -36 45 -78 55
-95 9 -16 73 -127 142 -245 69 -118 130 -223 135 -233 9 -17 12 -15 33 20 27
46 205 353 233 403 41 74 373 650 437 760 37 63 80 137 94 163 15 26 56 98 92
159 35 61 62 113 60 116 -5 5 -1843 9 -1869 4z"/>
<path d="M3112 8631 c29 -52 213 -378 272 -481 14 -25 53 -96 88 -157 34 -62
65 -113 68 -113 3 0 50 80 105 177 55 97 109 193 120 212 11 20 47 83 80 141
32 58 75 132 95 165 19 33 41 72 47 86 l11 26 -459 1 -458 0 31 -57z"/>
<path d="M7016 8603 c-4 -9 -31 -58 -60 -107 -48 -82 -206 -353 -255 -438 -10
-18 -35 -62 -56 -98 -21 -36 -51 -90 -68 -120 -16 -30 -33 -59 -37 -65 -4 -5
-43 -71 -85 -145 -43 -74 -109 -189 -146 -254 -38 -66 -69 -122 -69 -124 0 -3
-6 -13 -14 -21 -7 -9 -28 -43 -46 -76 -17 -33 -35 -64 -39 -70 -4 -5 -20 -31
-34 -57 l-27 -47 946 1 c733 0 944 2 942 12 -2 6 -49 93 -106 191 -122 212
-111 193 -159 275 -20 36 -45 79 -53 95 -9 17 -69 122 -134 234 -65 112 -126
218 -136 235 -9 17 -69 121 -132 231 -64 110 -126 218 -138 240 -74 132 -82
141 -94 108z"/>
<path d="M4665 8383 c-71 -124 -145 -253 -164 -287 -19 -34 -87 -153 -153
-265 -65 -112 -118 -205 -118 -206 0 -2 -27 -49 -60 -105 -33 -56 -60 -103
-60 -104 0 -2 -56 -99 -124 -217 l-124 -214 941 -3 c517 -1 942 0 945 2 2 3
-130 234 -295 516 -164 281 -306 525 -316 543 -140 243 -332 567 -336 567 -3
0 -64 -102 -136 -227z"/>
<path d="M1723 6760 l-32 -5 46 -80 c38 -68 104 -185 203 -360 12 -22 42 -74
65 -115 24 -41 56 -98 72 -126 111 -200 148 -264 153 -264 7 0 549 944 545
948 -5 6 -1017 7 -1052 2z"/>
<path d="M3865 6762 c-2 -2 16 -38 41 -79 24 -41 44 -76 44 -79 0 -2 13 -25
28 -51 49 -83 106 -181 232 -403 68 -118 159 -278 203 -355 44 -77 90 -158
103 -180 91 -162 276 -481 283 -487 6 -7 83 120 207 342 17 30 82 143 144 250
62 107 121 209 130 225 9 17 116 201 237 411 121 209 222 387 225 395 5 12
-123 14 -934 14 -517 0 -941 -1 -943 -3z"/>
<path d="M869 6703 c-18 -32 -46 -83 -62 -113 -16 -30 -33 -59 -37 -65 -18
-23 -230 -397 -230 -404 0 -5 169 -8 375 -8 l374 0 -11 21 c-6 12 -21 37 -33
56 -12 19 -33 55 -47 80 -14 25 -63 110 -110 190 -46 80 -104 180 -129 222
-24 43 -47 78 -51 78 -3 0 -21 -26 -39 -57z"/>
<path d="M3652 6622 c-18 -31 -45 -79 -61 -107 -17 -27 -36 -61 -44 -75 -14
-26 -238 -417 -275 -480 -11 -19 -29 -51 -40 -70 -11 -19 -123 -215 -250 -435
l-230 -400 936 -3 c514 -1 937 0 940 2 2 3 -29 62 -70 133 -203 348 -577 989
-627 1073 -30 52 -61 104 -67 115 -25 46 -157 271 -168 287 -11 15 -16 10 -44
-40z"/>
<path d="M2755 4822 c3 -9 51 -94 105 -188 55 -94 109 -189 120 -209 12 -21
65 -115 119 -209 55 -94 109 -189 121 -211 12 -22 110 -192 217 -379 107 -186
205 -357 218 -379 12 -23 27 -43 31 -44 5 -2 35 43 67 99 32 57 62 110 67 118
5 8 49 83 96 165 48 83 111 192 141 242 29 51 54 96 54 100 0 5 6 15 13 23 8
8 25 35 38 60 14 25 57 99 95 165 39 66 113 194 165 285 52 91 120 209 152
262 31 54 56 102 56 107 0 6 -357 10 -941 9 -864 0 -940 -1 -934 -16z"/>
<path d="M4793 4748 c-9 -11 -221 -377 -301 -518 -14 -25 -66 -115 -115 -200
-49 -85 -139 -240 -199 -345 -60 -104 -114 -197 -119 -205 -5 -8 -53 -93 -108
-187 l-99 -173 949 0 c523 0 948 3 946 8 -3 4 -40 68 -83 142 -43 74 -94 164
-114 200 -20 36 -103 180 -184 320 -80 140 -152 264 -158 275 -6 11 -49 85
-96 165 -46 80 -95 165 -109 190 -55 99 -187 325 -193 333 -4 4 -12 2 -17 -5z"/>
<path d="M828 4262 c-15 -3 -7 -19 199 -382 14 -25 40 -70 57 -101 188 -337
311 -547 317 -544 4 3 23 33 42 68 46 84 69 125 137 242 32 55 69 120 83 145
14 25 93 162 175 305 82 143 148 262 146 264 -4 4 -1133 7 -1156 3z"/>
<path d="M2428 3603 c-53 -93 -135 -235 -182 -317 -47 -81 -84 -151 -82 -155
5 -8 729 -8 736 0 6 7 -360 639 -370 639 -3 0 -49 -75 -102 -167z"/>
<path d="M3858 2892 c2 -7 92 -165 199 -350 108 -185 263 -454 345 -597 83
-143 162 -280 177 -305 14 -25 69 -121 121 -213 52 -91 97 -167 100 -167 3 0
64 102 136 228 110 190 273 473 344 597 10 17 50 86 89 155 39 69 75 132 81
140 13 22 109 187 138 240 14 25 44 77 67 115 78 131 96 165 88 166 -4 1 -432
2 -949 3 -775 1 -941 -1 -936 -12z"/>
<path d="M6096 2878 c4 -7 17 -29 29 -48 12 -19 33 -55 47 -80 43 -75 170
-293 193 -330 12 -19 25 -42 28 -50 7 -15 13 -26 104 -180 28 -47 106 -182
175 -300 311 -538 353 -610 360 -610 3 0 33 46 66 103 125 214 297 514 325
567 16 30 33 60 37 65 4 6 18 28 30 50 13 22 34 60 48 84 14 25 38 68 55 95
16 28 37 65 47 81 9 17 80 140 157 275 77 135 145 255 152 268 l12 22 -936 0
c-746 0 -935 -3 -929 -12z"/>
<path d="M5895 2792 c-11 -20 -22 -39 -25 -42 -3 -3 -12 -18 -20 -35 -8 -16
-19 -37 -26 -45 -6 -8 -25 -40 -41 -70 -17 -30 -53 -93 -80 -140 -28 -47 -139
-240 -248 -430 -109 -190 -263 -457 -342 -594 -79 -137 -143 -250 -143 -250 0
-2 1875 1 1884 3 5 0 4 7 -2 14 -8 10 -319 550 -390 677 -13 25 -40 72 -60
105 -19 33 -45 78 -57 100 -13 22 -101 175 -195 340 -95 165 -184 320 -198
345 -35 63 -35 64 -57 22z"/>
<path d="M8055 2653 c-50 -86 -100 -174 -113 -197 -13 -22 -41 -70 -62 -106
-21 -36 -102 -175 -179 -310 -78 -135 -146 -252 -151 -260 -6 -8 -15 -27 -21
-42 -6 -16 -15 -28 -20 -28 -5 0 -9 -5 -9 -11 0 -7 -18 -40 -40 -75 -22 -35
-40 -65 -40 -68 0 -2 -21 -40 -46 -83 -26 -43 -72 -123 -104 -179 l-57 -101
928 0 c511 0 929 2 929 4 0 3 -16 32 -36 66 -20 34 -50 87 -67 117 -17 30 -38
67 -49 82 -10 14 -18 28 -18 31 0 3 -50 92 -111 199 -62 106 -125 218 -142
248 -17 30 -38 67 -49 82 -10 14 -18 28 -18 31 0 2 -92 165 -205 362 -113 197
-205 361 -205 365 0 4 -6 12 -13 18 -9 8 -33 -27 -102 -145z"/>
<path d="M3367 2278 c-15 -24 -40 -67 -100 -173 -43 -77 -286 -500 -362 -630
-90 -155 -165 -287 -165 -291 0 -2 293 -4 651 -4 520 0 649 3 642 13 -6 6 -77
127 -158 267 -381 657 -435 751 -447 772 -7 13 -21 33 -30 46 l-17 23 -14 -23z"/>
</g>
</svg>
