<svg class="border shadow-md" viewBox="0 0 569.36 569.36" style="width: 569.36px; height: 569.36px;" xmlns="http://www.w3.org/2000/svg" preserveAspectRatio="none"><rect class="bg" id="bg" x="0" y="0" width="569.36" height="569.36" fill="#ffffff"/><path d="M -10 -56.936 S -182.00 -85.40&#10;                0.00 -56.94 142.34 -92.94&#10;                284.68 -56.94 376.36 -105.94&#10;                569.36 -56.94 711.70 -85.40&#10;                854.04 -56.94 V 569.36 H 0 V -56.94 Z" fill="#C7C7C7"/><path d="M -10 0 S -142.34 -39.00&#10;                0.00 0.00 142.34 -52.00&#10;                284.68 0.00 427.02 -28.47&#10;                569.36 0.00 711.70 -28.47&#10;                854.04 0.00 V 569.36 H 0 V 0.00 Z" fill="#bababa"/><path d="M -10 56.936 S -142.34 11.94&#10;                0.00 56.94 142.34 28.47&#10;                284.68 56.94 328.36 28.47&#10;                569.36 56.94 711.70 28.47&#10;                854.04 56.94 V 569.36 H 0 V 56.94 Z" fill="#adadad"/><path d="M -10 113.872 S -162.00 74.87&#10;                0.00 113.87 142.34 67.87&#10;                284.68 113.87 427.02 85.40&#10;                569.36 113.87 577.04 85.40&#10;                854.04 113.87 V 569.36 H 0 V 113.87 Z" fill="#a0a0a0"/><path d="M -10 170.808 S -241.00 122.81&#10;                0.00 170.81 142.34 142.34&#10;                284.68 170.81 423.36 142.34&#10;                569.36 170.81 595.04 142.34&#10;                854.04 170.81 V 569.36 H 0 V 170.81 Z" fill="#939393"/><path d="M -10 227.744 S -198.00 198.74&#10;                0.00 227.74 142.34 199.28&#10;                284.68 227.74 427.02 199.28&#10;                569.36 227.74 711.70 199.28&#10;                854.04 227.74 V 569.36 H 0 V 227.74 Z" fill="#868686"/><path d="M -10 284.68 S -142.34 234.68&#10;                0.00 284.68 142.34 246.68&#10;                284.68 284.68 312.36 256.21&#10;                569.36 284.68 711.70 256.21&#10;                854.04 284.68 V 569.36 H 0 V 284.68 Z" fill="#797979"/><path d="M -10 341.616 S -142.34 313.15&#10;                0.00 341.62 142.34 312.62&#10;                284.68 341.62 328.36 299.62&#10;                569.36 341.62 711.70 313.15&#10;                854.04 341.62 V 569.36 H 0 V 341.62 Z" fill="#6c6c6c"/><path d="M -10 398.552 S -142.34 368.55&#10;                0.00 398.55 15.68 370.08&#10;                284.68 398.55 391.36 347.55&#10;                569.36 398.55 573.04 370.08&#10;                854.04 398.55 V 569.36 H 0 V 398.55 Z" fill="#5f5f5f"/><path d="M -10 455.488 S -142.34 424.49&#10;                0.00 455.49 126.68 422.49&#10;                284.68 455.49 427.02 427.02&#10;                569.36 455.49 632.04 427.02&#10;                854.04 455.49 V 569.36 H 0 V 455.49 Z" fill="#525252"/><path d="M -10 512.424 S -246.00 483.96&#10;                0.00 512.42 142.34 460.42&#10;                284.68 512.42 316.36 462.42&#10;                569.36 512.42 711.70 476.42&#10;                854.04 512.42 V 569.36 H 0 V 512.42 Z" fill="#454545"/></svg>